<svg width="42" height="18" viewBox="0 0 42 18" fill="none" xmlns="http://www.w3.org/2000/svg">
<rect width="42" height="18" fill="white"/>
<path d="M17.7056 4.03003C18.7973 4.03014 19.6036 4.42007 20.1235 5.19995C20.6434 5.97125 20.9028 7.09803 20.9028 8.57983C20.9028 10.0877 20.6435 11.2234 20.1235 11.9861C19.6123 12.7486 18.806 13.1295 17.7056 13.1296C16.6136 13.1296 15.8066 12.7488 15.2866 11.9861C14.7667 11.2148 14.5073 10.0791 14.5073 8.57983C14.5073 7.09803 14.7667 5.97125 15.2866 5.19995C15.8066 4.41995 16.6136 4.03003 17.7056 4.03003ZM25.5005 4.03003C26.5922 4.03015 27.3985 4.42007 27.9185 5.19995C28.4384 5.97125 28.6977 7.09803 28.6978 8.57983C28.6978 10.0877 28.4384 11.2234 27.9185 11.9861C27.4072 12.7486 26.6009 13.1295 25.5005 13.1296C24.4085 13.1296 23.6015 12.7488 23.0815 11.9861C22.5616 11.2148 22.3022 10.0791 22.3022 8.57983C22.3023 7.09803 22.5616 5.97125 23.0815 5.19995C23.6015 4.41995 24.4085 4.03003 25.5005 4.03003ZM33.3472 4.03003C34.1443 4.03009 34.7988 4.27238 35.3101 4.75757C35.8214 5.2429 36.146 5.94132 36.2847 6.85132L35.2319 7.02026C35.0933 6.39634 34.8762 5.90684 34.5815 5.55151C34.2869 5.18758 33.8757 5.00471 33.3472 5.00464C32.9227 5.00464 32.5455 5.15663 32.2163 5.45972C31.8956 5.75438 31.6434 6.17544 31.4614 6.72144C31.2882 7.2586 31.2017 7.87813 31.2017 8.57983C31.2017 9.66317 31.3966 10.5304 31.7866 11.1804C32.1766 11.8303 32.7143 12.155 33.3989 12.155C34.0054 12.155 34.4689 11.9688 34.7896 11.5964C35.1188 11.2152 35.2836 10.7296 35.2837 10.1404V9.78882H33.4897V8.8269H36.272V12.9998H35.2837V12.071C35.1488 12.3141 34.9722 12.5207 34.7505 12.6882C34.3606 12.9827 33.8798 13.1296 33.3081 13.1296C32.6757 13.1296 32.1166 12.9525 31.6313 12.5974C31.1547 12.2335 30.7818 11.7087 30.5132 11.0242C30.2445 10.3395 30.1099 9.5245 30.1099 8.57983C30.1099 7.64392 30.2445 6.83379 30.5132 6.14917C30.7905 5.45585 31.1714 4.93126 31.6567 4.57593C32.1507 4.21193 32.7145 4.03003 33.3472 4.03003ZM10.9497 11.9597H13.355V12.9998H7.19287V11.9597H9.85791V5.34155L7.24463 6.79858L6.7251 5.91479L9.74072 4.15991H10.9497V11.9597ZM17.7056 5.01831C16.9949 5.01831 16.4703 5.3218 16.1323 5.92847C15.7944 6.53509 15.6255 7.41874 15.6255 8.57983C15.6255 9.74117 15.7943 10.6255 16.1323 11.2322C16.4703 11.8387 16.995 12.1423 17.7056 12.1423C18.4246 12.1422 18.9486 11.8386 19.2778 11.2322C19.6158 10.6255 19.7847 9.74117 19.7847 8.57983C19.7846 7.41008 19.6157 6.52643 19.2778 5.92847C18.9486 5.32194 18.4247 5.01845 17.7056 5.01831ZM25.5005 5.01831C24.7898 5.01831 24.2652 5.3218 23.9272 5.92847C23.5894 6.53509 23.4204 7.41874 23.4204 8.57983C23.4204 9.74117 23.5892 10.6255 23.9272 11.2322C24.2653 11.8387 24.7899 12.1423 25.5005 12.1423C26.2195 12.1422 26.7435 11.8386 27.0728 11.2322C27.4108 10.6255 27.5796 9.74117 27.5796 8.57983C27.5796 7.41008 27.4106 6.52643 27.0728 5.92847C26.7435 5.32194 26.2196 5.01845 25.5005 5.01831Z" fill="#1B1B1B"/>
</svg>
