<svg width="42" height="18" viewBox="0 0 42 18" fill="none" xmlns="http://www.w3.org/2000/svg">
<rect width="42" height="18" fill="white"/>
<path d="M17.7053 4.03003C18.7972 4.03009 19.6033 4.42001 20.1233 5.19995C20.6432 5.97125 20.9035 7.09796 20.9036 8.57983C20.9036 10.0878 20.6433 11.2234 20.1233 11.9861C19.612 12.7487 18.8059 13.1296 17.7053 13.1296C16.6134 13.1296 15.8074 12.7486 15.2874 11.9861C14.7674 11.2148 14.5071 10.0792 14.5071 8.57983C14.5071 7.09793 14.7674 5.97125 15.2874 5.19995C15.8074 4.42007 16.6134 4.03003 17.7053 4.03003ZM25.5002 4.03003C26.5921 4.03009 27.3983 4.42001 27.9182 5.19995C28.4382 5.97125 28.6985 7.09796 28.6985 8.57983C28.6985 10.0878 28.4382 11.2234 27.9182 11.9861C27.4069 12.7487 26.6008 13.1296 25.5002 13.1296C24.4083 13.1296 23.6023 12.7486 23.0823 11.9861C22.5623 11.2148 22.302 10.0792 22.302 8.57983C22.302 7.09793 22.5623 5.97125 23.0823 5.19995C23.6023 4.42007 24.4083 4.03003 25.5002 4.03003ZM33.3469 4.03003C34.1441 4.03004 34.7985 4.27241 35.3098 4.75757C35.8211 5.2429 36.1458 5.94132 36.2844 6.85132L35.2317 7.02026C35.0931 6.39655 34.8767 5.90681 34.5823 5.55151C34.2876 5.18753 33.8756 5.00465 33.3469 5.00464C32.9224 5.00464 32.5453 5.15655 32.2161 5.45972C31.8954 5.75438 31.6442 6.17544 31.4622 6.72144C31.2889 7.25865 31.2014 7.87804 31.2014 8.57983C31.2014 9.66317 31.3964 10.5304 31.7864 11.1804C32.1763 11.8303 32.7141 12.155 33.3987 12.155C34.0053 12.155 34.4696 11.9691 34.7903 11.5964C35.1196 11.2152 35.2834 10.7296 35.2834 10.1404V9.78882H33.4895V8.8269H36.2717V12.9998H35.2834V12.072C35.1487 12.3147 34.9726 12.521 34.7512 12.6882C34.3612 12.9829 33.8799 13.1296 33.3079 13.1296C32.6753 13.1296 32.1164 12.9526 31.6311 12.5974C31.1545 12.2334 30.7816 11.7088 30.5129 11.0242C30.2443 10.3395 30.1096 9.5245 30.1096 8.57983C30.1096 7.64396 30.2443 6.83377 30.5129 6.14917C30.7902 5.45593 31.1713 4.93126 31.6565 4.57593C32.1505 4.21193 32.7143 4.03003 33.3469 4.03003ZM12.0032 9.90601H13.2249V10.8943H12.0032V12.9998H10.9368V10.8943H6.46509V9.77612L10.5208 4.15991H12.0032V9.90601ZM17.7053 5.01831C16.9947 5.01831 16.4701 5.3218 16.1321 5.92847C15.7942 6.53509 15.6253 7.41881 15.6252 8.57983C15.6252 9.74117 15.7941 10.6255 16.1321 11.2322C16.4701 11.8388 16.9947 12.1423 17.7053 12.1423C18.4245 12.1423 18.9493 11.8388 19.2786 11.2322C19.6165 10.6255 19.7854 9.74111 19.7854 8.57983C19.7854 7.41028 19.6163 6.52643 19.2786 5.92847C18.9493 5.32187 18.4245 5.01838 17.7053 5.01831ZM25.5002 5.01831C24.7896 5.01831 24.265 5.3218 23.927 5.92847C23.5891 6.53509 23.4202 7.41881 23.4202 8.57983C23.4202 9.74117 23.589 10.6255 23.927 11.2322C24.265 11.8388 24.7896 12.1423 25.5002 12.1423C26.2195 12.1423 26.7442 11.8388 27.0735 11.2322C27.4115 10.6255 27.5803 9.74111 27.5803 8.57983C27.5803 7.41028 27.4113 6.52643 27.0735 5.92847C26.7442 5.32187 26.2195 5.01838 25.5002 5.01831ZM7.46411 9.90601H10.9368V5.09351L7.46411 9.90601Z" fill="#1B1B1B"/>
</svg>
