<svg width="55" height="18" viewBox="0 0 55 18" fill="none" xmlns="http://www.w3.org/2000/svg">
<rect width="55" height="18" fill="white"/>
<path d="M31.4004 4.03003C32.4921 4.03015 33.2984 4.42007 33.8184 5.19995C34.3383 5.97125 34.5976 7.09803 34.5977 8.57983C34.5977 10.0877 34.3383 11.2234 33.8184 11.9861C33.3071 12.7486 32.5008 13.1295 31.4004 13.1296C30.3084 13.1296 29.5014 12.7488 28.9814 11.9861C28.4615 11.2148 28.2021 10.0791 28.2021 8.57983C28.2022 7.09803 28.4615 5.97125 28.9814 5.19995C29.5014 4.41995 30.3084 4.03003 31.4004 4.03003ZM39.1953 4.03003C40.2871 4.03014 41.0934 4.42007 41.6133 5.19995C42.1332 5.97125 42.3926 7.09803 42.3926 8.57983C42.3926 10.0877 42.1332 11.2234 41.6133 11.9861C41.102 12.7486 40.2957 13.1295 39.1953 13.1296C38.1033 13.1296 37.2964 12.7488 36.7764 11.9861C36.2564 11.2148 35.9971 10.0791 35.9971 8.57983C35.9971 7.09803 36.2565 5.97125 36.7764 5.19995C37.2964 4.41995 38.1033 4.03003 39.1953 4.03003ZM47.042 4.03003C47.8392 4.03004 48.4936 4.27241 49.0049 4.75757C49.5162 5.2429 49.8408 5.94132 49.9795 6.85132L48.9268 7.02026C48.7882 6.39655 48.5718 5.90681 48.2773 5.55151C47.9827 5.18753 47.5706 5.00465 47.042 5.00464C46.6174 5.00464 46.2404 5.15655 45.9111 5.45972C45.5905 5.75438 45.3392 6.17544 45.1572 6.72144C44.984 7.25865 44.8965 7.87804 44.8965 8.57983C44.8965 9.66317 45.0914 10.5304 45.4814 11.1804C45.8714 11.8303 46.4092 12.155 47.0938 12.155C47.7004 12.155 48.1647 11.9691 48.4854 11.5964C48.8146 11.2152 48.9785 10.7296 48.9785 10.1404V9.78882H47.1846V8.8269H49.9668V12.9998H48.9785V12.072C48.8437 12.3147 48.6676 12.521 48.4463 12.6882C48.0563 12.9829 47.5749 13.1296 47.0029 13.1296C46.3704 13.1296 45.8114 12.9526 45.3262 12.5974C44.8495 12.2334 44.4767 11.7088 44.208 11.0242C43.9393 10.3395 43.8047 9.5245 43.8047 8.57983C43.8047 7.64396 43.9394 6.83377 44.208 6.14917C44.4853 5.45593 44.8663 4.93126 45.3516 4.57593C45.8456 4.21193 46.4093 4.03003 47.042 4.03003ZM10.1084 9.90601H11.3301V10.8943H10.1084V12.9998H9.04199V10.8943H4.57031V9.77612L8.62598 4.15991H10.1084V9.90601ZM15.8135 9.15991L17.7344 6.81226H18.9297L16.4531 9.78687L19.0605 12.9998H17.8379L15.7988 10.4568L13.7559 12.9998H12.5605L15.1543 9.83667L12.6768 6.81226H13.8994L15.8135 9.15991ZM24.6455 11.9597H27.0498V12.9998H20.8877V11.9597H23.5527V5.34155L20.9404 6.79858L20.4199 5.91479L23.4365 4.15991H24.6455V11.9597ZM31.4004 5.01831C30.6897 5.01831 30.1651 5.3218 29.8271 5.92847C29.4893 6.53509 29.3203 7.41874 29.3203 8.57983C29.3203 9.74117 29.4891 10.6255 29.8271 11.2322C30.1652 11.8387 30.6898 12.1423 31.4004 12.1423C32.1194 12.1422 32.6434 11.8386 32.9727 11.2322C33.3107 10.6255 33.4795 9.74117 33.4795 8.57983C33.4795 7.41008 33.3106 6.52643 32.9727 5.92847C32.6434 5.32194 32.1195 5.01845 31.4004 5.01831ZM39.1953 5.01831C38.4846 5.01831 37.9601 5.3218 37.6221 5.92847C37.2842 6.53509 37.1153 7.41874 37.1152 8.57983C37.1152 9.74117 37.2841 10.6255 37.6221 11.2322C37.9601 11.8387 38.4847 12.1423 39.1953 12.1423C39.9143 12.1422 40.4383 11.8386 40.7676 11.2322C41.1056 10.6255 41.2744 9.74117 41.2744 8.57983C41.2744 7.41008 41.1055 6.52643 40.7676 5.92847C40.4383 5.32194 39.9144 5.01845 39.1953 5.01831ZM5.56934 9.90601H9.04199V5.09351L5.56934 9.90601Z" fill="#1B1B1B"/>
</svg>
