<svg width="56" height="36" viewBox="0 0 56 36" fill="none" xmlns="http://www.w3.org/2000/svg">
<rect width="56" height="36" fill="#84FDBA"/>
<path d="M37.144 22.636L40.87 19.5581C41.89 18.718 42.622 17.992 43.066 17.38C43.51 16.768 43.732 16.108 43.732 15.4001C43.732 14.716 43.54 14.17 43.156 13.762C42.772 13.354 42.226 13.15 41.518 13.15C40.738 13.15 40.084 13.408 39.556 13.924C39.028 14.428 38.668 15.094 38.476 15.922L37 15.6521C37.216 14.4761 37.72 13.54 38.512 12.844C39.304 12.148 40.312 11.8 41.536 11.8C42.712 11.8 43.63 12.13 44.29 12.79C44.95 13.438 45.28 14.308 45.28 15.4001C45.28 16.06 45.16 16.66 44.92 17.2C44.68 17.728 44.308 18.25 43.804 18.766C43.312 19.27 42.628 19.87 41.752 20.566L38.368 23.248V22.78H45.424V24.22H37.144V22.636Z" fill="#1B1B1B"/>
<path fill-rule="evenodd" clip-rule="evenodd" d="M19.54 24.2402H17.9385L16.958 20.8916H12.5303L11.5664 24.2402H10L13.7617 12H15.7422L19.54 24.2402ZM12.9238 19.5244H16.5576L14.7256 13.2656L12.9238 19.5244Z" fill="#1B1B1B"/>
<path d="M28.8027 13.458L22.251 22.8184H28.749V24.2402H20.5234V22.7637L27.0391 13.4219H20.5234V12H28.8027V13.458Z" fill="#1B1B1B"/>
</svg>
