<svg width="56" height="36" viewBox="0 0 56 36" fill="none" xmlns="http://www.w3.org/2000/svg">
<rect width="56" height="36" fill="#84FDBA"/>
<path fill-rule="evenodd" clip-rule="evenodd" d="M19.54 24.2402H17.9385L16.958 20.8916H12.5303L11.5664 24.2402H10L13.7617 12H15.7422L19.54 24.2402ZM12.9238 19.5244H16.5576L14.7256 13.2656L12.9238 19.5244Z" fill="#1B1B1B"/>
<path d="M28.8027 13.458L22.251 22.8184H28.749V24.2402H20.5234V22.7637L27.0391 13.4219H20.5234V12H28.8027V13.458Z" fill="#1B1B1B"/>
<path d="M41.4439 24.42C40.2439 24.42 39.2659 24.156 38.5099 23.628C37.7539 23.088 37.2379 22.272 36.9619 21.18L38.4559 20.802C38.6719 21.534 39.0259 22.098 39.5179 22.494C40.0219 22.878 40.6639 23.07 41.4439 23.07C42.3319 23.07 43.0399 22.842 43.5679 22.386C44.1079 21.93 44.3779 21.312 44.3779 20.532C44.3779 19.764 44.1379 19.188 43.6579 18.804C43.1779 18.42 42.4759 18.228 41.5519 18.228C41.3119 18.228 41.0479 18.246 40.7599 18.282C40.4839 18.306 40.2439 18.342 40.0399 18.39L39.5899 17.13L44.4319 13.17L44.4679 13.44H37.5019V12H45.5299V13.836L41.1379 17.4L41.0479 17.094C41.4319 17.022 41.7799 16.986 42.0919 16.986C43.3039 16.986 44.2459 17.286 44.9179 17.886C45.5899 18.486 45.9259 19.35 45.9259 20.478C45.9259 21.702 45.5119 22.668 44.6839 23.376C43.8679 24.072 42.7879 24.42 41.4439 24.42Z" fill="#1B1B1B"/>
</svg>
