<svg width="56" height="36" viewBox="0 0 56 36" fill="none" xmlns="http://www.w3.org/2000/svg">
<rect width="56" height="36" fill="#84FDBA"/>
<path fill-rule="evenodd" clip-rule="evenodd" d="M19.54 24.2402H17.9385L16.958 20.8916H12.5303L11.5664 24.2402H10L13.7617 12H15.7422L19.54 24.2402ZM12.9238 19.5244H16.5576L14.7256 13.2656L12.9238 19.5244Z" fill="#1B1B1B"/>
<path d="M28.8027 13.458L22.251 22.8184H28.749V24.2402H20.5234V22.7637L27.0391 13.4219H20.5234V12H28.8027V13.458Z" fill="#1B1B1B"/>
<path d="M40.4802 24.42C39.3162 24.42 38.3502 24.15 37.5822 23.61C36.8142 23.07 36.2982 22.284 36.0342 21.252L37.5102 20.874C37.7262 21.57 38.0802 22.11 38.5722 22.494C39.0642 22.878 39.7002 23.07 40.4802 23.07C41.3322 23.07 42.0162 22.83 42.5322 22.35C43.0482 21.858 43.3062 21.198 43.3062 20.37C43.3062 19.542 43.0602 18.894 42.5682 18.426C42.0882 17.946 41.4402 17.706 40.6242 17.706C40.0482 17.706 39.5082 17.796 39.0042 17.976C38.5122 18.156 38.1282 18.384 37.8522 18.66L36.4842 18.264L37.1142 12H44.1882V13.44H37.7802L38.3742 12.846L37.9062 17.598L37.7262 17.436C38.0262 17.136 38.4582 16.89 39.0222 16.698C39.5982 16.494 40.2162 16.392 40.8762 16.392C42.0882 16.392 43.0542 16.752 43.7742 17.472C44.4942 18.192 44.8542 19.152 44.8542 20.352C44.8542 21.144 44.6682 21.846 44.2962 22.458C43.9362 23.07 43.4262 23.55 42.7662 23.898C42.1062 24.246 41.3442 24.42 40.4802 24.42Z" fill="#1B1B1B"/>
</svg>
