<svg width="93" height="56" viewBox="0 0 93 56" fill="none" xmlns="http://www.w3.org/2000/svg">
<path d="M0 48V32H8V16H16V8H24V0H40V8H69V16H77V24H85V32H93V48H85V56H8V48H0Z" fill="#1B1B1B"/>
<path d="M57.5161 29.2805C58.2893 29.2805 58.9757 29.4802 59.5757 29.8801C60.1756 30.2801 60.6427 30.8533 60.9761 31.5999C61.3227 32.3465 61.4966 33.2271 61.4966 34.2405C61.4965 35.2536 61.3227 36.1336 60.9761 36.8801C60.6294 37.6268 60.149 38.1999 59.5356 38.5999C58.9357 38.9998 58.2493 39.2004 57.4761 39.2004C56.663 39.2004 55.9764 39.0202 55.4165 38.6604C55.0802 38.4362 54.8075 38.1625 54.5962 37.842V42.8801H52.9966V29.4797H54.5962V30.6868C54.8091 30.3571 55.096 30.0748 55.4565 29.8401C56.0298 29.4669 56.7162 29.2805 57.5161 29.2805ZM46.104 29.2805C47.2639 29.2805 48.191 29.5336 48.8843 30.0403C49.5774 30.5469 50.0108 31.2004 50.1841 32.0002L48.7241 32.3196C48.3241 31.1865 47.4371 30.6204 46.064 30.6204C45.3042 30.6204 44.7175 30.7533 44.3042 31.0198C43.9043 31.2731 43.7037 31.6199 43.7036 32.0598C43.7036 32.4465 43.8373 32.7335 44.104 32.9202C44.384 33.1068 44.8307 33.253 45.4438 33.3596L47.3638 33.6799C48.3371 33.8399 49.0573 34.1332 49.5239 34.5598C49.9905 34.9864 50.224 35.5865 50.2241 36.3596C50.2241 37.213 49.8702 37.9002 49.1636 38.4202C48.4569 38.94 47.4434 39.2004 46.1235 39.2004C44.897 39.2004 43.904 38.9597 43.144 38.4797C42.3841 37.9997 41.9036 37.3001 41.7036 36.3801L43.2241 36.0598C43.4108 36.6598 43.737 37.1135 44.2036 37.4202C44.6836 37.7135 45.337 37.8596 46.1636 37.8596C47.0169 37.8596 47.6506 37.7402 48.064 37.5002C48.4773 37.2469 48.684 36.8868 48.6841 36.4202C48.6841 36.0202 48.537 35.7198 48.2437 35.5198C47.9636 35.3065 47.5036 35.1469 46.8638 35.0403L44.9438 34.72C43.9839 34.56 43.2771 34.2729 42.8237 33.8596C42.384 33.4464 42.1636 32.8667 42.1636 32.1204C42.1636 31.2805 42.5105 30.6003 43.2036 30.0803C43.9103 29.547 44.8773 29.2805 46.104 29.2805ZM35.8921 37.5803H38.9116V39.0002H31.1118V37.5803H34.312V30.8997H31.1118V29.4797H35.8921V37.5803ZM57.2563 30.7004C56.4831 30.7004 55.8431 30.9536 55.3364 31.4602C54.8431 31.9668 54.5962 32.6933 54.5962 33.6399V34.9202C54.5962 35.8534 54.8431 36.5665 55.3364 37.0598C55.8298 37.5398 56.4697 37.7805 57.2563 37.7805C58.0962 37.7805 58.7497 37.4595 59.2163 36.8196C59.6827 36.1664 59.9164 35.3067 59.9165 34.2405C59.9165 33.1738 59.683 32.3199 59.2163 31.6799C58.7497 31.0267 58.0962 30.7005 57.2563 30.7004ZM35.9917 27.6399H34.1919V25.72H35.9917V27.6399Z" fill="white"/>
</svg>
