<svg width="102" height="102" viewBox="0 0 102 102" fill="none" xmlns="http://www.w3.org/2000/svg">
<rect x="50.9116" width="72" height="72" transform="rotate(45 50.9116 0)" fill="#1B1B1B"/>
<path d="M50.9658 36.6953C52.0671 36.6954 52.9366 37.0197 53.5742 37.667C54.2117 38.3046 54.5303 39.1981 54.5303 40.3477C54.5303 41.5069 54.2117 42.4053 53.5742 43.043C52.9366 43.6806 52.0671 43.9999 50.9658 44C49.8644 44 48.9941 43.6807 48.3564 43.043C47.719 42.4053 47.4004 41.5069 47.4004 40.3477C47.4004 39.1981 47.719 38.3046 48.3564 37.667C48.9941 37.0196 49.8644 36.6953 50.9658 36.6953ZM42.7393 34C43.8407 34 44.6671 34.2565 45.2178 34.7686C45.7778 35.2806 46.0575 36.0725 46.0576 37.1445C46.0576 38.1976 45.7681 38.9951 45.1885 39.5361C44.6185 40.0772 43.8069 40.3476 42.7539 40.3477H40.7686V43.8555H39V34H42.7393ZM60.1191 34C61.2206 34 62.0469 34.2565 62.5977 34.7686C63.1578 35.2806 63.4384 36.0724 63.4385 37.1445C63.4385 38.1977 63.1481 38.9951 62.5684 39.5361C61.9983 40.0772 61.1869 40.3477 60.1338 40.3477H58.1484V43.8555H56.3799V34H60.1191ZM50.9658 38.1016C50.3766 38.1016 49.9124 38.2993 49.5742 38.6953C49.2361 39.0818 49.0664 39.6327 49.0664 40.3477C49.0664 41.0626 49.2361 41.6185 49.5742 42.0146C49.9124 42.401 50.3765 42.5938 50.9658 42.5938C51.5549 42.5937 52.0184 42.4009 52.3564 42.0146C52.6946 41.6185 52.8643 41.0626 52.8643 40.3477C52.8642 39.6327 52.6946 39.0818 52.3564 38.6953C52.0184 38.2995 51.5549 38.1017 50.9658 38.1016ZM40.7686 38.7969H42.5801C43.15 38.7968 43.5753 38.6621 43.8555 38.3916C44.1453 38.1211 44.29 37.7149 44.29 37.1738C44.29 36.5847 44.1402 36.1693 43.8408 35.9277C43.551 35.6766 43.1306 35.5508 42.5801 35.5508H40.7686V38.7969ZM58.1484 38.7969H59.96C60.5299 38.7969 60.9552 38.6621 61.2354 38.3916C61.5252 38.1211 61.6699 37.7149 61.6699 37.1738C61.6699 36.5846 61.5202 36.1693 61.2207 35.9277C60.9309 35.6765 60.5106 35.5508 59.96 35.5508H58.1484V38.7969Z" fill="white"/>
<path d="M33.4639 49.752L29.9844 52.5742C30.1327 52.5594 30.2737 52.5518 30.4072 52.5518C31.4846 52.5518 32.3226 52.8192 32.9199 53.3525C33.517 53.8859 33.8154 54.6538 33.8154 55.6562C33.8154 56.7442 33.4479 57.6031 32.7119 58.2324C31.9867 58.851 31.0265 59.1601 29.832 59.1602C28.7654 59.1602 27.8956 58.9254 27.2236 58.4561C26.5517 57.9761 26.093 57.2508 25.8477 56.2803L27.1758 55.9443C27.3678 56.5949 27.6828 57.0963 28.1201 57.4482C28.5681 57.7894 29.1389 57.96 29.832 57.96C30.6211 57.9599 31.2505 57.7577 31.7197 57.3525C32.1997 56.9472 32.4395 56.3974 32.4395 55.7041C32.4394 55.0215 32.2265 54.5093 31.7998 54.168C31.3732 53.8266 30.749 53.6563 29.9277 53.6562C29.7144 53.6562 29.4796 53.6721 29.2236 53.7041C28.9785 53.7254 28.7652 53.7572 28.584 53.7998L28.1836 52.6797L32.1934 49.4004H26.3281V48.1201H33.4639V49.752ZM42.6094 59H41.3291V58.0332C41.1605 58.297 40.9368 58.5234 40.6572 58.7119C40.1986 59.0106 39.6438 59.1602 38.9932 59.1602C38.3746 59.1601 37.8256 58.9996 37.3457 58.6797C36.8657 58.3597 36.4863 57.901 36.209 57.3037C35.9425 56.7065 35.8096 56.0027 35.8096 55.1924C35.8096 54.3817 35.9483 53.6774 36.2256 53.0801C36.5029 52.4828 36.8814 52.0241 37.3613 51.7041C37.852 51.3841 38.4067 51.2236 39.0254 51.2236C39.676 51.2236 40.2199 51.3683 40.6572 51.6562C40.9375 51.8364 41.1616 52.056 41.3291 52.3154V48.1201H42.6094V59ZM49.2109 51.2246C50.1283 51.2246 50.8534 51.4485 51.3867 51.8965C51.9306 52.3338 52.203 53.0106 52.2031 53.9277V59H51.0029V57.9238C50.7901 58.2591 50.497 58.5328 50.123 58.7441C49.6431 59.0215 49.0724 59.1601 48.4111 59.1602C47.5793 59.1602 46.9075 58.9679 46.3955 58.584C45.8942 58.1893 45.6436 57.6346 45.6436 56.9199C45.6436 56.2267 45.8298 55.7144 46.2031 55.3838C46.5764 55.0426 47.0302 54.8295 47.5635 54.7441C48.1074 54.6482 48.7634 54.6006 49.5312 54.6006C50.2029 54.6006 50.6827 54.6056 50.9707 54.6162V53.9922C50.9707 53.427 50.811 53.0059 50.4912 52.7285C50.1819 52.4405 49.7549 52.2959 49.2109 52.2959C48.6563 52.2959 48.2026 52.4296 47.8506 52.6963C47.4988 52.9523 47.2538 53.2992 47.1152 53.7363L45.915 53.4961C46.0964 52.7708 46.4699 52.2111 47.0352 51.8164C47.6111 51.4218 48.3363 51.2246 49.2109 51.2246ZM68.3984 51.2246C69.3158 51.2246 70.0409 51.4485 70.5742 51.8965C71.1181 52.3338 71.3905 53.0106 71.3906 53.9277V59H70.1904V57.9238C69.9776 58.2591 69.6845 58.5328 69.3105 58.7441C68.8306 59.0215 68.2599 59.1601 67.5986 59.1602C66.7667 59.1602 66.095 58.9679 65.583 58.584C65.0817 58.1893 64.8311 57.6346 64.8311 56.9199C64.8311 56.2267 65.0173 55.7144 65.3906 55.3838C65.7639 55.0426 66.2177 54.8295 66.751 54.7441C67.2949 54.6482 67.9509 54.6006 68.7188 54.6006C69.3904 54.6006 69.8702 54.6056 70.1582 54.6162V53.9922C70.1582 53.427 69.9985 53.0059 69.6787 52.7285C69.3694 52.4405 68.9424 52.2959 68.3984 52.2959C67.8438 52.2959 67.3901 52.4296 67.0381 52.6963C66.6863 52.9523 66.4413 53.2992 66.3027 53.7363L65.1025 53.4961C65.2839 52.7708 65.6574 52.2111 66.2227 51.8164C66.7986 51.4218 67.5238 51.2246 68.3984 51.2246ZM58.6133 51.3838H61.8291V52.5205H58.5967V56.04C58.5967 56.6693 58.7146 57.133 58.9492 57.4316C59.1839 57.7196 59.5841 57.8643 60.1494 57.8643H62.1172V59H60.1328C59.4716 59 58.9326 58.8989 58.5166 58.6963C58.1007 58.4936 57.7974 58.1785 57.6055 57.752C57.4135 57.3146 57.3174 56.749 57.3174 56.0557V52.5205H54.917V51.3838H57.3174V49.3525H58.6133V51.3838ZM49.9951 55.5918C49.2698 55.5918 48.6883 55.6245 48.251 55.6885C47.8244 55.7418 47.4934 55.8637 47.2588 56.0557C47.0348 56.237 46.9229 56.5044 46.9229 56.8564C46.9229 57.2403 47.0675 57.5387 47.3555 57.752C47.6435 57.9652 48.0378 58.0723 48.5391 58.0723C49.2323 58.0723 49.808 57.9117 50.2666 57.5918C50.7359 57.2612 50.9707 56.8242 50.9707 56.2803V55.6084C50.7574 55.5977 50.4322 55.5918 49.9951 55.5918ZM69.1826 55.5918C68.4573 55.5918 67.8758 55.6245 67.4385 55.6885C67.0119 55.7418 66.6809 55.8637 66.4463 56.0557C66.2223 56.237 66.1104 56.5044 66.1104 56.8564C66.1104 57.2403 66.255 57.5387 66.543 57.752C66.831 57.9652 67.2253 58.0723 67.7266 58.0723C68.4198 58.0723 68.9955 57.9117 69.4541 57.5918C69.9234 57.2612 70.1582 56.8242 70.1582 56.2803V55.6084C69.9449 55.5977 69.6197 55.5918 69.1826 55.5918ZM39.2012 52.3604C38.5292 52.3604 38.0071 52.6219 37.6338 53.1445C37.2605 53.6565 37.0732 54.3391 37.0732 55.1924C37.0733 56.0456 37.2605 56.7332 37.6338 57.2559C38.0071 57.7678 38.5293 58.0244 39.2012 58.0244C39.8198 58.0244 40.327 57.8213 40.7217 57.416C41.1269 57.0107 41.3291 56.4291 41.3291 55.6719V54.7119C41.3291 53.9547 41.127 53.3731 40.7217 52.9678C40.327 52.5624 39.8198 52.3604 39.2012 52.3604Z" fill="white"/>
</svg>
