<svg width="102" height="102" viewBox="0 0 102 102" fill="none" xmlns="http://www.w3.org/2000/svg">
<rect x="50.9116" width="72" height="72" transform="rotate(45 50.9116 0)" fill="#1B1B1B"/>
<path d="M56.3896 48.96C57.7771 48.96 58.8496 49.4125 59.6064 50.3184C60.3632 51.2242 60.7412 52.6636 60.7412 54.6357C60.7412 56.7799 60.3571 58.3796 59.5889 59.4346C58.8206 60.478 57.7368 61 56.3379 61C55.2945 61 54.4343 60.7477 53.7578 60.2432C53.0814 59.7386 52.64 59.0389 52.4336 58.1445L53.8271 57.7832C53.9991 58.368 54.2913 58.8389 54.7041 59.1943C55.1168 59.5497 55.6615 59.7275 56.3379 59.7275C57.2782 59.7275 58.0177 59.3312 58.5566 58.54C59.0955 57.7489 59.3652 56.5566 59.3652 54.9629C59.113 55.4101 58.6941 55.7942 58.1094 56.1152C57.5246 56.4247 56.8482 56.5791 56.0801 56.5791C54.9678 56.5791 54.0618 56.2583 53.3623 55.6162C52.6629 54.9626 52.3135 54.0166 52.3135 52.7783C52.3135 52.0101 52.48 51.3389 52.8125 50.7656C53.145 50.1925 53.6151 49.7509 54.2227 49.4414C54.8418 49.1204 55.5641 48.96 56.3896 48.96ZM48.2783 52.4688C48.8974 52.4688 49.3787 52.67 49.7227 53.0713C50.0781 53.4612 50.2559 54.0404 50.2559 54.8086V60.8281H48.9834V55.1865C48.9834 54.6477 48.9027 54.2523 48.7422 54C48.5817 53.7363 48.324 53.6046 47.9688 53.6045C47.5904 53.6045 47.2921 53.7476 47.0742 54.0342C46.8678 54.3094 46.7646 54.7282 46.7646 55.29V60.8281H45.4912V55.1865C45.4912 54.6591 45.4054 54.2637 45.2334 54C45.0729 53.7363 44.8206 53.6045 44.4766 53.6045C44.0983 53.6046 43.7999 53.7476 43.582 54.0342C43.3757 54.3094 43.2725 54.7222 43.2725 55.2725V60.8281H42V52.6406H43.2041V53.4062C43.3112 53.2167 43.442 53.0526 43.5996 52.916C43.9436 52.618 44.3564 52.4688 44.8379 52.4688C45.3538 52.4688 45.7666 52.6353 46.0762 52.9678C46.2483 53.1463 46.3795 53.3523 46.4736 53.584C46.602 53.3391 46.7672 53.1274 46.9707 52.9502C47.3261 52.6292 47.7624 52.4688 48.2783 52.4688ZM56.4238 50.2324C55.5984 50.2325 54.9506 50.4562 54.4805 50.9033C54.0218 51.3505 53.792 51.9757 53.792 52.7783C53.792 53.581 54.0218 54.2061 54.4805 54.6533C54.9391 55.089 55.5817 55.3066 56.4072 55.3066C57.1868 55.3066 57.8173 55.0829 58.2988 54.6357C58.7918 54.1771 59.0381 53.558 59.0381 52.7783C59.0381 51.9987 58.7978 51.3795 58.3164 50.9209C57.8348 50.4622 57.2036 50.2324 56.4238 50.2324Z" fill="white"/>
<path d="M50.9658 36.6953C52.0671 36.6954 52.9366 37.0197 53.5742 37.667C54.2117 38.3046 54.5303 39.1981 54.5303 40.3477C54.5303 41.5069 54.2117 42.4053 53.5742 43.043C52.9366 43.6806 52.0671 43.9999 50.9658 44C49.8644 44 48.9941 43.6807 48.3564 43.043C47.719 42.4053 47.4004 41.5069 47.4004 40.3477C47.4004 39.1981 47.719 38.3046 48.3564 37.667C48.9941 37.0196 49.8644 36.6953 50.9658 36.6953ZM42.7393 34C43.8407 34 44.6671 34.2565 45.2178 34.7686C45.7778 35.2806 46.0575 36.0725 46.0576 37.1445C46.0576 38.1976 45.7681 38.9951 45.1885 39.5361C44.6185 40.0772 43.8069 40.3476 42.7539 40.3477H40.7686V43.8555H39V34H42.7393ZM60.1191 34C61.2206 34 62.0469 34.2565 62.5977 34.7686C63.1578 35.2806 63.4384 36.0724 63.4385 37.1445C63.4385 38.1977 63.1481 38.9951 62.5684 39.5361C61.9983 40.0772 61.1869 40.3477 60.1338 40.3477H58.1484V43.8555H56.3799V34H60.1191ZM50.9658 38.1016C50.3766 38.1016 49.9124 38.2993 49.5742 38.6953C49.2361 39.0818 49.0664 39.6327 49.0664 40.3477C49.0664 41.0626 49.2361 41.6185 49.5742 42.0146C49.9124 42.401 50.3765 42.5938 50.9658 42.5938C51.5549 42.5937 52.0184 42.4009 52.3564 42.0146C52.6946 41.6185 52.8643 41.0626 52.8643 40.3477C52.8642 39.6327 52.6946 39.0818 52.3564 38.6953C52.0184 38.2995 51.5549 38.1017 50.9658 38.1016ZM40.7686 38.7969H42.5801C43.15 38.7968 43.5753 38.6621 43.8555 38.3916C44.1453 38.1211 44.29 37.7149 44.29 37.1738C44.29 36.5847 44.1402 36.1693 43.8408 35.9277C43.551 35.6766 43.1306 35.5508 42.5801 35.5508H40.7686V38.7969ZM58.1484 38.7969H59.96C60.5299 38.7969 60.9552 38.6621 61.2354 38.3916C61.5252 38.1211 61.6699 37.7149 61.6699 37.1738C61.6699 36.5846 61.5202 36.1693 61.2207 35.9277C60.9309 35.6765 60.5106 35.5508 59.96 35.5508H58.1484V38.7969Z" fill="white"/>
</svg>
