<svg width="72" height="72" viewBox="0 0 72 72" fill="none" xmlns="http://www.w3.org/2000/svg">
<path d="M0 15.9999H9V8H17V0H55V8H63V15.9999H72V55.9999H63V63.9999H55V71.9999H17V63.9999H9V55.9999H0V15.9999Z" fill="#D9D9D9"/>
<path d="M50.374 36.332L46.374 40.832L45.626 40.168L48.8867 36.5L36.5 36.5L36.5 48.8867L40.168 45.626L40.832 46.374L36.332 50.374L36 50.6689L35.668 50.374L31.168 46.374L31.832 45.626L35.5 48.8867L35.5 36.5L23.1133 36.5L26.374 40.168L25.626 40.832L21.626 36.332L21.3311 36L21.626 35.668L25.626 31.168L26.374 31.832L23.1133 35.5L35.5 35.5L35.5 23.1133L31.832 26.374L31.168 25.626L35.668 21.626L36 21.3311L36.332 21.626L40.832 25.626L40.168 26.374L36.5 23.1133L36.5 35.5L48.8867 35.5L45.626 31.832L46.374 31.168L50.374 35.668L50.6689 36L50.374 36.332Z" fill="#1B1B1B"/>
</svg>
